name C:/MyDriveSym/Projects/mobilecap/Data\Session20210830_0001\mocap\ForceDataProcessed\DJ3_forces.mot
datacolumns 28
datarows 20
range 1.15450000 1.16400000
endheader 
time	R_ground_force_vx	R_ground_force_vy	R_ground_force_vz	R_ground_force_px	R_ground_force_py	R_ground_force_pz	R_ground_torque_x	R_ground_torque_y	R_ground_torque_z	L_ground_force_vx	L_ground_force_vy	L_ground_force_vz	L_ground_force_px	L_ground_force_py	L_ground_force_pz	L_ground_torque_x	L_ground_torque_y	L_ground_torque_z	3_ground_force_vx	3_ground_force_vy	3_ground_force_vz	3_ground_force_px	3_ground_force_py	3_ground_force_pz	3_ground_torque_x	3_ground_torque_y	3_ground_torque_z	
          1.15450000	        -99.05116600	        730.63769700	        -17.83276500	         -0.16271500	          0.00600000	         -0.48082700	          0.00000000	         -7.19562700	          0.00000000	        -32.81863500	        874.42218600	         10.57930900	         -0.15970500	          0.00600000	         -0.72877600	          0.00000000	          5.14140300	          0.00000000	          0.00000000	          0.00000000	          0.00000000	          0.00000000	          0.00000000	          0.00000000	          0.00000000	          0.00000000	          0.00000000	
          1.15500000	        -98.02619600	        732.07034400	        -18.36156900	         -0.16264400	          0.00600000	         -0.48075800	          0.00000000	         -7.14479200	          0.00000000	        -33.51622800	        872.93063600	         11.47738900	         -0.15915800	          0.00600000	         -0.72884300	          0.00000000	          5.05743700	          0.00000000	          0.00000000	          0.00000000	          0.00000000	          0.00000000	          0.00000000	          0.00000000	          0.00000000	          0.00000000	          0.00000000	
          1.15550000	        -97.05393700	        733.48576100	        -18.87774000	         -0.16256400	          0.00600000	         -0.48068900	          0.00000000	         -7.09569800	          0.00000000	        -34.26392500	        871.41110800	         12.39949800	         -0.15859700	          0.00600000	         -0.72891500	          0.00000000	          4.97221500	          0.00000000	          0.00000000	          0.00000000	          0.00000000	          0.00000000	          0.00000000	          0.00000000	          0.00000000	          0.00000000	          0.00000000	
          1.15600000	        -96.13577100	        734.88234700	        -19.38107800	         -0.16247400	          0.00600000	         -0.48062000	          0.00000000	         -7.04834700	          0.00000000	        -35.05968400	        869.86390700	         13.34244900	         -0.15802300	          0.00600000	         -0.72899000	          0.00000000	          4.88597100	          0.00000000	          0.00000000	          0.00000000	          0.00000000	          0.00000000	          0.00000000	          0.00000000	          0.00000000	          0.00000000	          0.00000000	
          1.15650000	        -95.27280200	        736.25855400	        -19.87138600	         -0.16237500	          0.00600000	         -0.48055100	          0.00000000	         -7.00274100	          0.00000000	        -35.90141500	        868.28942600	         14.30302900	         -0.15743500	          0.00600000	         -0.72906900	          0.00000000	          4.79895600	          0.00000000	          0.00000000	          0.00000000	          0.00000000	          0.00000000	          0.00000000	          0.00000000	          0.00000000	          0.00000000	          0.00000000	
          1.15700000	        -94.46583600	        737.61290800	        -20.34847000	         -0.16226700	          0.00600000	         -0.48048200	          0.00000000	         -6.95889000	          0.00000000	        -36.78698500	        866.68814500	         15.27803300	         -0.15683600	          0.00600000	         -0.72915100	          0.00000000	          4.71143400	          0.00000000	          0.00000000	          0.00000000	          0.00000000	          0.00000000	          0.00000000	          0.00000000	          0.00000000	          0.00000000	          0.00000000	
          1.15750000	        -93.71537200	        738.94400100	        -20.81214200	         -0.16214900	          0.00600000	         -0.48041300	          0.00000000	         -6.91681200	          0.00000000	        -37.71424300	        865.06062100	         16.26427800	         -0.15622400	          0.00600000	         -0.72923500	          0.00000000	          4.62367400	          0.00000000	          0.00000000	          0.00000000	          0.00000000	          0.00000000	          0.00000000	          0.00000000	          0.00000000	          0.00000000	          0.00000000	
          1.15800000	        -93.02161300	        740.25050100	        -21.26221900	         -0.16202100	          0.00600000	         -0.48034400	          0.00000000	         -6.87652600	          0.00000000	        -38.68104300	        863.40750200	         17.25861900	         -0.15560200	          0.00600000	         -0.72932100	          0.00000000	          4.53593700	          0.00000000	          0.00000000	          0.00000000	          0.00000000	          0.00000000	          0.00000000	          0.00000000	          0.00000000	          0.00000000	          0.00000000	
          1.15850000	        -92.38447200	        741.53118200	        -21.69853800	         -0.16188400	          0.00600000	         -0.48027500	          0.00000000	         -6.83805700	          0.00000000	        -39.68526400	        861.72957700	         18.25795100	         -0.15496900	          0.00600000	         -0.72940900	          0.00000000	          4.44847100	          0.00000000	          0.00000000	          0.00000000	          0.00000000	          0.00000000	          0.00000000	          0.00000000	          0.00000000	          0.00000000	          0.00000000	
          1.15900000	        -91.80358100	        742.78494500	        -22.12097300	         -0.16173600	          0.00600000	         -0.48020700	          0.00000000	         -6.80143700	          0.00000000	        -40.72480900	        860.02781300	         19.25920800	         -0.15432600	          0.00600000	         -0.72949800	          0.00000000	          4.36150500	          0.00000000	          0.00000000	          0.00000000	          0.00000000	          0.00000000	          0.00000000	          0.00000000	          0.00000000	          0.00000000	          0.00000000	
          1.15950000	        -91.27830300	        744.01083500	        -22.52944000	         -0.16158000	          0.00600000	         -0.48013800	          0.00000000	         -6.76670500	          0.00000000	        -41.79761000	        858.30336400	         20.25938400	         -0.15367300	          0.00600000	         -0.72958800	          0.00000000	          4.27525400	          0.00000000	          0.00000000	          0.00000000	          0.00000000	          0.00000000	          0.00000000	          0.00000000	          0.00000000	          0.00000000	          0.00000000	
          1.16000000	        -90.80775600	        745.20803000	        -22.92387800	         -0.16141400	          0.00600000	         -0.48006900	          0.00000000	         -6.73390700	          0.00000000	        -42.90163800	        856.55754900	         21.25555300	         -0.15301300	          0.00600000	         -0.72967800	          0.00000000	          4.18990900	          0.00000000	          0.00000000	          0.00000000	          0.00000000	          0.00000000	          0.00000000	          0.00000000	          0.00000000	          0.00000000	          0.00000000	
          1.16050000	        -90.39082200	        746.37583500	        -23.30424600	         -0.16123800	          0.00600000	         -0.48000100	          0.00000000	         -6.70308400	          0.00000000	        -44.03489900	        854.79183400	         22.24490400	         -0.15234300	          0.00600000	         -0.72976800	          0.00000000	          4.10565000	          0.00000000	          0.00000000	          0.00000000	          0.00000000	          0.00000000	          0.00000000	          0.00000000	          0.00000000	          0.00000000	          0.00000000	
          1.16100000	        -90.02616400	        747.51366600	        -23.67052800	         -0.16105400	          0.00600000	         -0.47993200	          0.00000000	         -6.67427800	          0.00000000	        -45.19541900	        853.00782600	         23.22476300	         -0.15166700	          0.00600000	         -0.72985700	          0.00000000	          4.02265500	          0.00000000	          0.00000000	          0.00000000	          0.00000000	          0.00000000	          0.00000000	          0.00000000	          0.00000000	          0.00000000	          0.00000000	
          1.16150000	        -89.71223100	        748.62104200	        -24.02274300	         -0.16086100	          0.00600000	         -0.47986300	          0.00000000	         -6.64752300	          0.00000000	        -46.38123100	        851.20726800	         24.19260700	         -0.15098400	          0.00600000	         -0.72994600	          0.00000000	          3.94110800	          0.00000000	          0.00000000	          0.00000000	          0.00000000	          0.00000000	          0.00000000	          0.00000000	          0.00000000	          0.00000000	          0.00000000	
          1.16200000	        -89.44727800	        749.69758800	        -24.36096000	         -0.16065900	          0.00600000	         -0.47979400	          0.00000000	         -6.62285300	          0.00000000	        -47.59038500	        849.39201900	         25.14605100	         -0.15029400	          0.00600000	         -0.73003300	          0.00000000	          3.86118900	          0.00000000	          0.00000000	          0.00000000	          0.00000000	          0.00000000	          0.00000000	          0.00000000	          0.00000000	          0.00000000	          0.00000000	
          1.16250000	        -89.22937400	        750.74303700	        -24.68529200	         -0.16044800	          0.00600000	         -0.47972500	          0.00000000	         -6.60030100	          0.00000000	        -48.82095600	        847.56402200	         26.08284800	         -0.14959800	          0.00600000	         -0.73011900	          0.00000000	          3.78307600	          0.00000000	          0.00000000	          0.00000000	          0.00000000	          0.00000000	          0.00000000	          0.00000000	          0.00000000	          0.00000000	          0.00000000	
          1.16300000	        -89.05642700	        751.75722700	        -24.99588800	         -0.16023000	          0.00600000	         -0.47965600	          0.00000000	         -6.57989800	          0.00000000	        -50.07105900	        845.72527700	         27.00087800	         -0.14889800	          0.00600000	         -0.73020300	          0.00000000	          3.70693400	          0.00000000	          0.00000000	          0.00000000	          0.00000000	          0.00000000	          0.00000000	          0.00000000	          0.00000000	          0.00000000	          0.00000000	
          1.16350000	        -88.92621700	        752.74007700	        -25.29293000	         -0.16000400	          0.00600000	         -0.47958700	          0.00000000	         -6.56166900	          0.00000000	        -51.33884200	        843.87782400	         27.89813900	         -0.14819300	          0.00600000	         -0.73028500	          0.00000000	          3.63292000	          0.00000000	          0.00000000	          0.00000000	          0.00000000	          0.00000000	          0.00000000	          0.00000000	          0.00000000	          0.00000000	          0.00000000	
          1.16400000	        -88.83642100	        753.69157500	        -25.57663500	         -0.15977100	          0.00600000	         -0.47951700	          0.00000000	         -6.54562800	          0.00000000	        -52.62250500	        842.02373000	         28.77273900	         -0.14748400	          0.00600000	         -0.73036400	          0.00000000	          3.56117000	          0.00000000	          0.00000000	          0.00000000	          0.00000000	          0.00000000	          0.00000000	          0.00000000	          0.00000000	          0.00000000	          0.00000000	
